<?xml version="1.0" standalone="no"?>
<!DOCTYPE svg PUBLIC "-//W3C//DTD SVG 20010904//EN"
 "http://www.w3.org/TR/2001/REC-SVG-20010904/DTD/svg10.dtd">
<svg version="1.0" xmlns="http://www.w3.org/2000/svg"
 width="2948.000000pt" height="2948.000000pt" viewBox="0 0 2948.000000 2948.000000"
 preserveAspectRatio="xMidYMid meet">
<metadata>
Created by potrace 1.11, written by Peter Selinger 2001-2013
</metadata>
<g transform="translate(0.000000,2948.000000) scale(0.100000,-0.100000)"
fill="#000000" stroke="none">
<path d="M20992 28508 c-77 -156 -191 -386 -252 -513 -62 -126 -157 -322 -212
-435 -56 -113 -126 -259 -158 -325 -32 -66 -108 -223 -170 -350 -62 -126 -145
-297 -185 -380 -40 -82 -110 -226 -155 -320 -45 -93 -119 -244 -163 -335 -119
-247 -244 -503 -342 -705 -48 -99 -120 -247 -160 -330 -40 -82 -117 -240 -170
-350 -54 -110 -123 -254 -155 -320 -32 -66 -104 -214 -160 -330 -56 -115 -124
-255 -150 -310 -26 -55 -91 -190 -145 -300 -54 -110 -123 -254 -155 -320 -32
-66 -106 -219 -165 -340 -59 -121 -131 -269 -160 -330 -29 -60 -99 -204 -155
-320 -56 -115 -126 -259 -155 -320 -55 -114 -151 -313 -300 -620 -48 -99 -119
-245 -158 -325 -38 -80 -121 -251 -184 -380 -63 -129 -115 -243 -116 -253 -1
-14 25 -34 103 -79 58 -33 114 -64 125 -69 61 -28 277 -164 417 -262 162 -114
222 -161 393 -306 92 -79 410 -390 480 -471 68 -78 183 -217 210 -255 17 -22
32 -42 36 -45 3 -3 39 -52 80 -110 406 -572 691 -1224 818 -1874 26 -131 35
-184 56 -316 2 -14 7 -54 11 -90 4 -36 8 -76 10 -90 5 -38 14 -355 18 -613 2
-125 6 -230 8 -232 5 -5 59 -11 193 -20 44 -3 103 -8 130 -10 28 -2 88 -7 135
-10 179 -13 207 -15 265 -19 33 -3 98 -8 145 -11 83 -6 143 -10 258 -20 31 -2
98 -7 147 -10 50 -3 113 -8 140 -10 28 -3 82 -7 120 -10 39 -2 102 -7 140 -10
39 -3 95 -8 125 -10 30 -2 100 -7 155 -10 55 -3 114 -8 130 -10 17 -2 77 -7
135 -10 58 -4 121 -8 140 -10 19 -2 78 -6 130 -10 52 -3 115 -8 140 -10 25 -3
86 -7 135 -11 50 -3 106 -7 125 -9 19 -2 80 -6 135 -10 55 -3 120 -8 145 -10
25 -3 81 -7 125 -10 44 -3 107 -8 140 -10 79 -7 161 -13 265 -20 47 -3 103 -8
125 -10 22 -3 83 -7 135 -10 52 -3 115 -8 140 -10 25 -2 88 -6 140 -10 52 -4
115 -8 140 -10 156 -12 194 -15 270 -20 47 -4 103 -8 125 -10 22 -2 81 -7 130
-10 50 -3 113 -8 140 -10 90 -7 199 -15 270 -20 39 -3 102 -7 140 -10 39 -3
102 -7 140 -10 111 -7 216 -15 270 -20 28 -3 91 -7 140 -10 50 -3 110 -8 135
-10 25 -2 88 -7 140 -10 52 -3 111 -8 130 -10 19 -2 82 -7 140 -10 58 -4 123
-8 145 -10 22 -2 81 -7 130 -10 50 -3 110 -8 135 -10 25 -2 90 -7 145 -10 55
-4 116 -8 135 -10 38 -4 185 -15 265 -20 28 -2 88 -6 135 -10 103 -7 170 -12
275 -20 44 -3 105 -7 135 -10 30 -2 91 -6 135 -10 44 -3 107 -7 140 -10 33 -3
93 -7 133 -10 39 -3 105 -7 145 -10 39 -3 97 -7 127 -10 30 -2 98 -7 150 -11
52 -3 111 -7 130 -9 19 -2 78 -6 130 -10 52 -3 115 -8 140 -10 25 -2 85 -7
134 -10 49 -3 112 -7 140 -10 28 -3 86 -7 129 -10 75 -5 77 -5 78 17 1 13 2
34 4 48 23 231 30 474 30 1120 0 537 -5 762 -20 940 -5 67 -14 184 -20 275 -3
44 -8 103 -10 130 -3 28 -7 79 -11 115 -3 36 -7 76 -9 90 -2 14 -7 50 -10 80
-3 30 -7 71 -10 90 -3 19 -7 58 -10 85 -11 100 -41 325 -50 375 -2 14 -7 41
-9 60 -17 125 -75 462 -101 590 -3 14 -8 41 -11 60 -6 36 -54 262 -80 380 -8
36 -17 76 -20 90 -4 25 -118 473 -153 605 -79 296 -307 999 -367 1132 -8 17
-14 36 -14 42 0 6 -7 25 -15 43 -8 18 -52 130 -99 248 -46 118 -108 269 -136
335 -29 66 -58 134 -65 150 -14 33 -34 76 -123 270 -62 136 -198 411 -272 550
-23 44 -56 107 -73 140 -186 360 -547 951 -835 1367 -162 233 -175 252 -202
287 -11 14 -50 67 -86 116 -129 174 -391 508 -500 635 -12 14 -63 75 -114 135
-51 61 -100 117 -109 125 -9 9 -45 49 -80 90 -36 41 -72 82 -80 91 -9 9 -59
63 -111 120 -230 252 -781 789 -1029 1005 -19 16 -39 34 -45 39 -82 75 -422
359 -547 457 -189 149 -239 187 -269 208 -19 13 -41 30 -48 37 -16 15 -300
222 -408 298 -510 354 -999 655 -1499 925 -193 104 -630 330 -639 330 -2 0
-67 -127 -144 -282z"/>
<path d="M8145 28621 c-115 -59 -235 -121 -265 -138 -30 -16 -104 -56 -165
-88 -60 -32 -171 -93 -245 -136 -74 -42 -152 -86 -172 -98 -21 -11 -54 -30
-73 -41 -19 -10 -51 -30 -72 -43 -21 -14 -103 -64 -183 -112 -599 -364 -1265
-844 -1825 -1319 -128 -108 -344 -297 -397 -346 -14 -14 -71 -65 -125 -115
-128 -116 -673 -663 -784 -785 -47 -52 -105 -117 -130 -144 -24 -27 -53 -59
-64 -71 -23 -24 -45 -49 -170 -195 -122 -143 -110 -127 -242 -291 -130 -161
-146 -182 -248 -314 -85 -111 -100 -131 -165 -220 -28 -38 -69 -95 -91 -125
-151 -207 -388 -564 -557 -840 -124 -202 -116 -188 -201 -337 -40 -70 -82
-144 -93 -163 -21 -36 -49 -88 -158 -290 -61 -115 -310 -614 -310 -623 0 -2
-24 -56 -54 -118 -59 -125 -206 -468 -255 -594 -18 -44 -36 -89 -41 -100 -46
-103 -303 -823 -314 -880 -1 -5 -7 -23 -13 -40 -16 -41 -119 -388 -149 -500
-13 -49 -33 -124 -44 -165 -19 -72 -69 -269 -75 -300 -2 -8 -4 -15 -5 -15 -1
0 -3 -11 -6 -24 -2 -13 -13 -60 -25 -103 -17 -70 -27 -115 -45 -208 -3 -14 -9
-41 -14 -60 -5 -19 -12 -53 -15 -75 -4 -22 -10 -56 -15 -75 -10 -39 -86 -451
-95 -515 -3 -22 -8 -51 -10 -65 -3 -14 -7 -43 -10 -65 -4 -22 -10 -65 -15 -95
-14 -85 -25 -159 -35 -240 -3 -25 -8 -56 -10 -70 -2 -14 -7 -46 -10 -72 -9
-81 -16 -141 -20 -178 -4 -33 -9 -82 -20 -190 -16 -167 -20 -218 -30 -360 -3
-47 -7 -112 -10 -145 -15 -195 -20 -455 -20 -970 0 -618 10 -971 30 -1113 l6
-44 115 7 c62 3 124 8 136 10 13 2 73 6 133 10 61 3 130 8 155 10 25 2 90 6
145 10 55 3 116 8 135 10 19 2 82 7 140 10 58 3 121 8 140 10 19 3 80 7 135 9
55 3 125 7 155 10 30 3 96 8 145 11 50 3 113 8 140 10 28 2 84 7 125 9 214 16
258 19 290 21 19 2 85 6 145 9 61 4 121 9 135 11 14 2 75 6 135 10 61 3 130 8
155 11 25 2 77 7 115 9 97 6 220 15 285 20 30 2 91 7 135 10 44 3 112 8 150
11 39 3 97 7 130 9 33 2 96 6 140 9 125 10 193 15 290 22 50 3 106 7 125 9 19
2 82 7 140 11 58 4 121 8 140 9 19 2 80 6 135 9 55 4 118 8 140 11 22 2 85 7
140 10 55 4 120 8 145 10 25 2 83 7 130 10 47 3 108 7 135 10 28 2 91 7 140
10 50 4 110 8 135 10 25 3 86 7 135 10 50 3 115 7 145 10 92 8 181 15 265 20
44 3 103 8 130 10 28 3 88 7 135 10 47 3 110 8 140 10 30 2 93 7 140 10 47 3
105 7 130 10 25 2 83 6 130 10 47 3 112 8 145 11 33 2 94 7 135 10 41 2 102 7
135 9 33 2 96 7 140 10 44 3 105 8 135 10 30 3 89 7 130 10 41 3 104 7 140 10
74 6 169 13 268 20 37 3 96 7 132 10 36 3 101 7 145 10 44 3 105 8 135 10 30
3 93 7 140 10 47 3 107 8 135 10 90 7 189 15 260 20 39 2 99 7 135 10 36 2
103 7 150 10 47 4 105 8 130 10 43 4 122 9 290 21 41 2 87 7 101 10 l26 5 0
282 c0 323 10 513 38 707 2 14 7 45 10 70 3 25 10 70 15 100 5 30 12 71 15 90
3 19 8 42 10 50 2 8 7 31 10 50 10 63 65 283 97 385 174 571 400 1036 721
1485 108 150 280 362 378 465 156 164 312 315 410 397 24 21 53 46 64 56 93
85 419 320 553 397 9 6 19 12 22 15 3 3 19 13 35 22 17 9 68 38 115 64 47 26
101 56 120 67 162 90 160 89 145 116 -8 14 -40 80 -71 146 -31 66 -97 203
-145 303 -49 101 -89 185 -89 187 0 1 -43 92 -96 201 -53 110 -114 237 -136
284 -22 47 -78 162 -123 255 -46 94 -107 222 -138 285 -30 63 -97 203 -150
310 -52 107 -125 258 -162 335 -156 323 -211 436 -265 550 -32 66 -104 215
-160 330 -56 116 -129 266 -162 335 -133 275 -200 413 -288 595 -51 105 -123
253 -160 330 -37 77 -104 214 -148 305 -43 91 -117 242 -162 335 -45 94 -117
242 -160 330 -43 88 -112 232 -155 320 -43 88 -122 252 -178 365 -133 274
-210 434 -212 440 -1 3 -48 100 -104 215 -57 116 -127 260 -156 320 -29 61
-105 218 -170 350 -65 132 -157 321 -205 420 -48 99 -158 324 -245 500 -86
176 -170 348 -187 383 -16 34 -31 62 -32 61 0 0 -95 -49 -211 -108z"/>
<path d="M14365 18724 c-49 -7 -115 -15 -145 -19 -45 -5 -129 -21 -262 -50
-130 -28 -357 -103 -523 -173 -120 -49 -350 -165 -376 -188 -8 -8 -19 -14 -24
-14 -10 0 -244 -158 -305 -207 -640 -504 -1046 -1148 -1210 -1921 -23 -108
-24 -113 -34 -207 -4 -33 -9 -69 -11 -80 -8 -42 -19 -255 -18 -385 0 -160 12
-344 28 -442 11 -62 14 -85 20 -128 4 -25 17 -90 31 -145 13 -55 26 -110 28
-121 20 -110 155 -453 247 -630 212 -405 448 -699 817 -1017 148 -127 360
-270 562 -379 217 -117 641 -268 850 -304 14 -3 48 -9 75 -14 282 -54 647 -68
930 -35 22 3 63 7 90 10 28 3 84 12 125 20 41 8 93 18 115 21 22 3 47 10 55
14 8 4 18 8 23 8 4 0 20 3 35 6 15 4 36 8 47 11 46 9 240 71 300 95 11 5 56
23 100 40 93 37 345 161 385 190 16 11 31 20 35 20 13 0 328 216 371 255 7 5
31 26 55 45 101 81 298 278 400 400 85 101 269 351 269 365 0 2 18 33 40 67
55 84 191 361 235 478 79 206 132 394 170 600 22 118 24 131 31 200 3 36 9 97
14 135 4 39 6 169 4 290 -3 213 -6 270 -20 365 -4 25 -8 54 -9 65 -4 27 -24
144 -30 175 -15 79 -78 317 -103 390 -96 278 -278 631 -440 855 -110 151 -185
238 -340 393 -378 378 -813 651 -1267 795 -132 41 -189 59 -205 62 -8 2 -33 8
-55 13 -22 6 -53 13 -70 16 -16 2 -77 13 -135 25 -171 33 -274 40 -595 44
-136 2 -254 -2 -310 -9z"/>
<path d="M11853 11263 c-54 -76 -114 -161 -133 -189 -41 -61 -110 -161 -231
-334 -48 -69 -107 -153 -131 -188 -24 -34 -80 -115 -125 -180 -45 -64 -112
-161 -150 -215 -115 -165 -161 -231 -183 -262 -12 -16 -64 -91 -115 -165 -51
-74 -103 -148 -115 -165 -44 -61 -233 -332 -278 -400 -26 -38 -51 -74 -55 -80
-5 -5 -106 -149 -224 -320 -119 -170 -235 -337 -258 -370 -23 -33 -115 -166
-205 -295 -90 -129 -179 -257 -199 -285 -19 -27 -51 -73 -71 -101 -88 -129
-136 -197 -315 -454 -105 -151 -216 -311 -247 -355 -30 -45 -71 -103 -90 -130
-19 -28 -97 -140 -173 -250 -246 -354 -450 -648 -500 -720 -63 -91 -93 -135
-375 -540 -130 -187 -256 -369 -281 -405 -55 -78 -525 -755 -691 -995 -65 -93
-122 -177 -128 -185 -168 -240 -210 -303 -210 -309 0 -14 183 -140 565 -386
457 -294 1194 -698 1700 -932 50 -23 126 -58 170 -79 74 -34 120 -54 310 -136
128 -55 388 -159 535 -214 80 -30 154 -59 165 -63 134 -60 1099 -367 1245
-396 8 -2 94 -23 190 -48 252 -64 630 -150 760 -172 19 -3 91 -17 160 -30 140
-26 196 -36 225 -41 11 -1 65 -10 120 -19 55 -9 116 -18 135 -21 19 -2 46 -6
60 -9 14 -2 45 -7 70 -10 25 -4 56 -8 70 -10 46 -8 143 -20 235 -29 33 -4 70
-8 82 -10 12 -3 54 -7 93 -11 39 -4 84 -8 98 -10 15 -2 59 -6 97 -9 39 -3 99
-9 135 -12 36 -3 90 -7 120 -9 30 -2 93 -6 140 -10 485 -33 1160 -37 1640 -10
212 12 300 17 330 20 19 2 78 6 130 10 52 4 102 9 111 10 8 2 53 6 100 10 46
4 91 8 100 10 9 2 52 6 95 10 43 4 86 9 95 10 9 2 40 6 70 10 30 3 65 8 79 10
14 2 63 9 110 15 47 6 101 13 120 16 19 2 46 6 60 9 14 3 43 7 65 11 70 10
132 20 190 30 17 3 140 25 220 38 17 3 403 82 445 91 236 52 617 147 803 201
67 19 169 49 227 65 174 50 515 162 740 243 52 19 134 48 181 65 174 62 600
235 794 321 640 285 1196 573 1750 905 210 127 549 339 589 369 17 14 16 18
-33 91 -28 42 -51 81 -51 86 0 5 -4 9 -8 9 -5 0 -15 12 -23 28 -8 15 -18 32
-22 37 -5 6 -56 82 -113 170 -58 88 -110 167 -117 175 -7 8 -18 28 -26 43 -8
15 -18 27 -23 27 -4 0 -8 4 -8 10 0 5 -150 235 -333 512 -437 659 -1145 1725
-1535 2311 -172 258 -312 472 -312 477 0 4 -3 10 -8 12 -7 3 -583 864 -591
883 -2 6 -17 26 -32 46 -16 20 -29 40 -29 44 0 4 -13 24 -30 45 -16 21 -30 40
-30 43 0 3 -36 58 -80 122 -44 64 -80 118 -80 119 0 3 -235 356 -247 371 -4 6
-14 22 -22 38 -8 15 -18 27 -23 27 -4 0 -8 6 -8 14 0 7 -7 20 -16 27 -9 7 -19
20 -23 29 -9 23 -385 585 -393 588 -5 2 -8 7 -8 12 0 11 -342 524 -352 528 -4
2 -8 8 -8 13 0 11 -102 163 -112 167 -5 2 -8 8 -8 14 0 8 -41 71 -73 113 -10
13 -107 158 -127 190 -8 14 -82 124 -165 246 -82 123 -159 237 -170 254 -11
18 -51 79 -89 136 -39 57 -71 105 -72 107 -2 4 -99 -49 -154 -83 -142 -88
-329 -187 -502 -265 -62 -28 -122 -55 -133 -60 -258 -117 -698 -251 -1023
-311 -189 -35 -191 -35 -362 -55 -25 -2 -56 -7 -70 -9 -120 -19 -589 -26 -819
-12 -74 5 -137 10 -140 11 -3 2 -37 7 -76 10 -38 4 -81 9 -95 11 -14 2 -50 7
-80 10 -30 4 -57 8 -60 10 -3 2 -26 6 -50 10 -107 15 -423 85 -476 105 -14 6
-38 12 -53 15 -37 6 -319 103 -438 149 -182 71 -509 225 -582 274 -14 10 -39
24 -56 32 -16 8 -104 61 -194 118 -91 56 -169 102 -173 102 -4 0 -51 -62 -105
-137z"/>
</g>
</svg>
